<mxfile host="Electron" modified="2024-01-31T04:27:03.197Z" agent="Mozilla/5.0 (Windows NT 10.0; Win64; x64) AppleWebKit/537.36 (KHTML, like Gecko) draw.io/22.1.2 Chrome/114.0.5735.289 Electron/25.9.4 Safari/537.36" etag="yOjS4bGST6aFAePFD_FO" version="22.1.2" type="device">
  <diagram name="第 1 页" id="DpDYpGICT-u4w4fD0tlQ">
    <mxGraphModel dx="2053" dy="909" grid="1" gridSize="10" guides="1" tooltips="1" connect="1" arrows="1" fold="1" page="1" pageScale="1" pageWidth="491" pageHeight="413" math="0" shadow="0">
      <root>
        <mxCell id="0" />
        <mxCell id="1" parent="0" />
        <mxCell id="mAwNY7C1ntah-TTMIJ20-62" value="" style="rounded=1;whiteSpace=wrap;html=1;fillColor=#ffe6cc;strokeColor=#d79b00;" vertex="1" parent="1">
          <mxGeometry x="-410" y="290" width="670" height="70" as="geometry" />
        </mxCell>
        <mxCell id="mAwNY7C1ntah-TTMIJ20-63" value="partition 2" style="text;html=1;strokeColor=none;fillColor=none;align=center;verticalAlign=middle;whiteSpace=wrap;rounded=0;fontStyle=1;fontSize=14;" vertex="1" parent="1">
          <mxGeometry x="-390" y="310" width="70" height="30" as="geometry" />
        </mxCell>
        <mxCell id="mAwNY7C1ntah-TTMIJ20-60" value="" style="rounded=1;whiteSpace=wrap;html=1;fillColor=#ffe6cc;strokeColor=#d79b00;" vertex="1" parent="1">
          <mxGeometry x="-410" y="197" width="670" height="70" as="geometry" />
        </mxCell>
        <mxCell id="mAwNY7C1ntah-TTMIJ20-61" value="partition 1" style="text;html=1;strokeColor=none;fillColor=none;align=center;verticalAlign=middle;whiteSpace=wrap;rounded=0;fontStyle=1;fontSize=14;" vertex="1" parent="1">
          <mxGeometry x="-390" y="217" width="70" height="30" as="geometry" />
        </mxCell>
        <mxCell id="mAwNY7C1ntah-TTMIJ20-57" value="" style="rounded=1;whiteSpace=wrap;html=1;fillColor=#ffe6cc;strokeColor=#d79b00;" vertex="1" parent="1">
          <mxGeometry x="-410" y="100" width="670" height="70" as="geometry" />
        </mxCell>
        <mxCell id="mAwNY7C1ntah-TTMIJ20-23" value="0" style="rounded=0;whiteSpace=wrap;html=1;fontSize=20;fontStyle=1;fillColor=#d5e8d4;strokeColor=#82b366;" vertex="1" parent="1">
          <mxGeometry x="-290" y="110" width="50" height="50" as="geometry" />
        </mxCell>
        <mxCell id="mAwNY7C1ntah-TTMIJ20-24" value="1" style="rounded=0;whiteSpace=wrap;html=1;fontSize=20;fontStyle=1;fillColor=#d5e8d4;strokeColor=#82b366;" vertex="1" parent="1">
          <mxGeometry x="-240" y="110" width="50" height="50" as="geometry" />
        </mxCell>
        <mxCell id="mAwNY7C1ntah-TTMIJ20-25" value="2" style="rounded=0;whiteSpace=wrap;html=1;fontSize=20;fontStyle=1;fillColor=#d5e8d4;strokeColor=#82b366;" vertex="1" parent="1">
          <mxGeometry x="-190" y="110" width="50" height="50" as="geometry" />
        </mxCell>
        <mxCell id="mAwNY7C1ntah-TTMIJ20-26" value="3" style="rounded=0;whiteSpace=wrap;html=1;fontSize=20;fontStyle=1;fillColor=#d5e8d4;strokeColor=#82b366;" vertex="1" parent="1">
          <mxGeometry x="-140" y="110" width="50" height="50" as="geometry" />
        </mxCell>
        <mxCell id="mAwNY7C1ntah-TTMIJ20-27" value="4" style="rounded=0;whiteSpace=wrap;html=1;fontSize=20;fontStyle=1;fillColor=#d5e8d4;strokeColor=#82b366;" vertex="1" parent="1">
          <mxGeometry x="-90" y="110" width="50" height="50" as="geometry" />
        </mxCell>
        <mxCell id="mAwNY7C1ntah-TTMIJ20-28" value="0" style="rounded=0;whiteSpace=wrap;html=1;fontSize=20;fontStyle=1;fillColor=#d5e8d4;strokeColor=#82b366;" vertex="1" parent="1">
          <mxGeometry x="-290" y="207" width="50" height="50" as="geometry" />
        </mxCell>
        <mxCell id="mAwNY7C1ntah-TTMIJ20-29" value="1" style="rounded=0;whiteSpace=wrap;html=1;fontSize=20;fontStyle=1;fillColor=#d5e8d4;strokeColor=#82b366;" vertex="1" parent="1">
          <mxGeometry x="-240" y="207" width="50" height="50" as="geometry" />
        </mxCell>
        <mxCell id="mAwNY7C1ntah-TTMIJ20-30" value="2" style="rounded=0;whiteSpace=wrap;html=1;fontSize=20;fontStyle=1;fillColor=#d5e8d4;strokeColor=#82b366;" vertex="1" parent="1">
          <mxGeometry x="-190" y="207" width="50" height="50" as="geometry" />
        </mxCell>
        <mxCell id="mAwNY7C1ntah-TTMIJ20-31" value="3" style="rounded=0;whiteSpace=wrap;html=1;fontSize=20;fontStyle=1;fillColor=#d5e8d4;strokeColor=#82b366;" vertex="1" parent="1">
          <mxGeometry x="-140" y="207" width="50" height="50" as="geometry" />
        </mxCell>
        <mxCell id="mAwNY7C1ntah-TTMIJ20-32" value="4" style="rounded=0;whiteSpace=wrap;html=1;fontSize=20;fontStyle=1;fillColor=#d5e8d4;strokeColor=#82b366;" vertex="1" parent="1">
          <mxGeometry x="-90" y="207" width="50" height="50" as="geometry" />
        </mxCell>
        <mxCell id="mAwNY7C1ntah-TTMIJ20-33" value="0" style="rounded=0;whiteSpace=wrap;html=1;fontSize=20;fontStyle=1;fillColor=#d5e8d4;strokeColor=#82b366;" vertex="1" parent="1">
          <mxGeometry x="-290" y="300" width="50" height="50" as="geometry" />
        </mxCell>
        <mxCell id="mAwNY7C1ntah-TTMIJ20-34" value="1" style="rounded=0;whiteSpace=wrap;html=1;fontSize=20;fontStyle=1;fillColor=#d5e8d4;strokeColor=#82b366;" vertex="1" parent="1">
          <mxGeometry x="-240" y="300" width="50" height="50" as="geometry" />
        </mxCell>
        <mxCell id="mAwNY7C1ntah-TTMIJ20-35" value="2" style="rounded=0;whiteSpace=wrap;html=1;fontSize=20;fontStyle=1;fillColor=#d5e8d4;strokeColor=#82b366;" vertex="1" parent="1">
          <mxGeometry x="-190" y="300" width="50" height="50" as="geometry" />
        </mxCell>
        <mxCell id="mAwNY7C1ntah-TTMIJ20-36" value="3" style="rounded=0;whiteSpace=wrap;html=1;fontSize=20;fontStyle=1;fillColor=#d5e8d4;strokeColor=#82b366;" vertex="1" parent="1">
          <mxGeometry x="-140" y="300" width="50" height="50" as="geometry" />
        </mxCell>
        <mxCell id="mAwNY7C1ntah-TTMIJ20-37" value="4" style="rounded=0;whiteSpace=wrap;html=1;fontSize=20;fontStyle=1;fillColor=#d5e8d4;strokeColor=#82b366;" vertex="1" parent="1">
          <mxGeometry x="-90" y="300" width="50" height="50" as="geometry" />
        </mxCell>
        <mxCell id="mAwNY7C1ntah-TTMIJ20-38" value="5" style="rounded=0;whiteSpace=wrap;html=1;fontSize=20;fontStyle=1;fillColor=#d5e8d4;strokeColor=#82b366;" vertex="1" parent="1">
          <mxGeometry x="-40" y="110" width="50" height="50" as="geometry" />
        </mxCell>
        <mxCell id="mAwNY7C1ntah-TTMIJ20-39" value="5" style="rounded=0;whiteSpace=wrap;html=1;fontSize=20;fontStyle=1;fillColor=#d5e8d4;strokeColor=#82b366;" vertex="1" parent="1">
          <mxGeometry x="-40" y="300" width="50" height="50" as="geometry" />
        </mxCell>
        <mxCell id="mAwNY7C1ntah-TTMIJ20-40" value="6" style="rounded=0;whiteSpace=wrap;html=1;fontSize=20;fontStyle=1;fillColor=#d5e8d4;strokeColor=#82b366;" vertex="1" parent="1">
          <mxGeometry x="10" y="300" width="50" height="50" as="geometry" />
        </mxCell>
        <mxCell id="mAwNY7C1ntah-TTMIJ20-41" value="7" style="rounded=0;whiteSpace=wrap;html=1;fontSize=20;fontStyle=1;fillColor=#d5e8d4;strokeColor=#82b366;" vertex="1" parent="1">
          <mxGeometry x="60" y="300" width="50" height="50" as="geometry" />
        </mxCell>
        <mxCell id="mAwNY7C1ntah-TTMIJ20-42" value="" style="endArrow=none;dashed=1;html=1;dashPattern=1 3;strokeWidth=2;rounded=0;" edge="1" parent="1">
          <mxGeometry width="50" height="50" relative="1" as="geometry">
            <mxPoint x="-40" y="388" as="sourcePoint" />
            <mxPoint x="-40" y="76" as="targetPoint" />
          </mxGeometry>
        </mxCell>
        <mxCell id="mAwNY7C1ntah-TTMIJ20-43" value="HW = 5" style="text;html=1;strokeColor=none;fillColor=none;align=center;verticalAlign=middle;whiteSpace=wrap;rounded=0;fontStyle=1;fontSize=14;" vertex="1" parent="1">
          <mxGeometry x="-70" y="50" width="60" height="30" as="geometry" />
        </mxCell>
        <mxCell id="mAwNY7C1ntah-TTMIJ20-44" value="6" style="rounded=0;whiteSpace=wrap;html=1;dashed=1;fontSize=20;fontStyle=1" vertex="1" parent="1">
          <mxGeometry x="10" y="110" width="50" height="50" as="geometry" />
        </mxCell>
        <mxCell id="mAwNY7C1ntah-TTMIJ20-48" value="5" style="rounded=0;whiteSpace=wrap;html=1;dashed=1;fontSize=20;fontStyle=1" vertex="1" parent="1">
          <mxGeometry x="-40" y="207" width="50" height="50" as="geometry" />
        </mxCell>
        <mxCell id="mAwNY7C1ntah-TTMIJ20-49" value="8" style="rounded=0;whiteSpace=wrap;html=1;dashed=1;fontSize=20;fontStyle=1" vertex="1" parent="1">
          <mxGeometry x="110" y="300" width="50" height="50" as="geometry" />
        </mxCell>
        <mxCell id="mAwNY7C1ntah-TTMIJ20-50" value="LEO = 6" style="text;html=1;strokeColor=none;fillColor=none;align=center;verticalAlign=middle;whiteSpace=wrap;rounded=0;fontStyle=1;fontSize=14;" vertex="1" parent="1">
          <mxGeometry x="80" y="123.5" width="70" height="23" as="geometry" />
        </mxCell>
        <mxCell id="mAwNY7C1ntah-TTMIJ20-55" value="LEO = 5" style="text;html=1;strokeColor=none;fillColor=none;align=center;verticalAlign=middle;whiteSpace=wrap;rounded=0;fontStyle=1;fontSize=14;" vertex="1" parent="1">
          <mxGeometry x="30" y="220.5" width="70" height="23" as="geometry" />
        </mxCell>
        <mxCell id="mAwNY7C1ntah-TTMIJ20-56" value="LEO = 8" style="text;html=1;strokeColor=none;fillColor=none;align=center;verticalAlign=middle;whiteSpace=wrap;rounded=0;fontStyle=1;fontSize=14;" vertex="1" parent="1">
          <mxGeometry x="176" y="313.5" width="70" height="23" as="geometry" />
        </mxCell>
        <mxCell id="mAwNY7C1ntah-TTMIJ20-59" value="partition 0" style="text;html=1;strokeColor=none;fillColor=none;align=center;verticalAlign=middle;whiteSpace=wrap;rounded=0;fontStyle=1;fontSize=14;" vertex="1" parent="1">
          <mxGeometry x="-390" y="120" width="70" height="30" as="geometry" />
        </mxCell>
      </root>
    </mxGraphModel>
  </diagram>
</mxfile>
